<svg width="36" height="37" viewBox="0 0 36 37" fill="none" xmlns="http://www.w3.org/2000/svg">
<path d="M17.9338 12.1351C14.6528 12.1351 11.9753 14.8634 11.9753 18.2066C11.9753 21.5498 14.6528 24.278 17.9338 24.278C21.2148 24.278 23.8923 21.5498 23.8923 18.2066C23.8923 14.8634 21.2148 12.1351 17.9338 12.1351ZM35.8049 18.2066C35.8049 15.6924 35.8272 13.2009 35.6886 10.6913C35.5501 7.77627 34.8975 5.18919 32.8055 3.05757C30.7091 0.921409 28.1746 0.260974 25.3138 0.119778C22.8463 -0.0214189 20.4012 0.00135478 17.9383 0.00135478C15.4708 0.00135478 13.0257 -0.0214189 10.5627 0.119778C7.70194 0.260974 5.16298 0.925964 3.07102 3.05757C0.974583 5.19374 0.326432 7.77627 0.187862 10.6913C0.049292 13.2055 0.0716421 15.6969 0.0716421 18.2066C0.0716421 20.7162 0.049292 23.2122 0.187862 25.7219C0.326432 28.6369 0.979053 31.224 3.07102 33.3556C5.16745 35.4918 7.70194 36.1522 10.5627 36.2934C13.0302 36.4346 15.4753 36.4118 17.9383 36.4118C20.4057 36.4118 22.8508 36.4346 25.3138 36.2934C28.1746 36.1522 30.7135 35.4872 32.8055 33.3556C34.9019 31.2194 35.5501 28.6369 35.6886 25.7219C35.8317 23.2122 35.8049 20.7208 35.8049 18.2066ZM17.9338 27.5483C12.8603 27.5483 8.7658 23.3762 8.7658 18.2066C8.7658 13.037 12.8603 8.86485 17.9338 8.86485C23.0072 8.86485 27.1018 13.037 27.1018 18.2066C27.1018 23.3762 23.0072 27.5483 17.9338 27.5483ZM27.4772 10.664C26.2927 10.664 25.3361 9.68925 25.3361 8.48225C25.3361 7.27525 26.2927 6.30054 27.4772 6.30054C28.6618 6.30054 29.6184 7.27525 29.6184 8.48225C29.6187 8.76886 29.5636 9.05272 29.4561 9.31758C29.3486 9.58244 29.1909 9.8231 28.992 10.0258C28.7931 10.2284 28.557 10.3891 28.297 10.4986C28.0371 10.6081 27.7585 10.6643 27.4772 10.664Z" fill="black"/>
</svg>
