<svg width="24" height="24" viewBox="0 0 24 24" fill="none" xmlns="http://www.w3.org/2000/svg">
<path d="M12.0469 5.64708C12.3789 5.64708 13.1677 5.85703 13.1677 5.85703C15.3047 6.34673 16.8089 8.31511 16.8089 10.5375V16.5193L17.2458 16.9583L17.6108 17.325H6.38916L6.75422 16.9583L7.19114 16.5193V10.5375C7.19114 8.31516 8.69531 6.34673 10.8323 5.85703C10.8323 5.85703 11.6781 5.64708 11.9531 5.64708M12 2.25C11.1749 2.25 10.5441 2.88366 10.5441 3.7125V4.39495C7.77778 5.02884 5.69114 7.56375 5.69114 10.5375V15.9L3.75 17.85V18.825H20.25V17.85L18.3089 15.9V10.5375C18.3089 7.56375 16.2222 5.02884 13.4559 4.39495V3.7125C13.4559 2.88366 12.8251 2.25 12 2.25ZM13.9411 19.8H10.0588C10.0588 20.8725 10.9322 21.75 12 21.75C13.0678 21.75 13.9411 20.8725 13.9411 19.8Z" fill="white"/>
<circle cx="17.4548" cy="6.54563" r="2.72727" fill="#FF0000"/>
</svg>
