<svg width="56" height="56" viewBox="0 0 56 56" fill="none" xmlns="http://www.w3.org/2000/svg">
<path d="M9.33464 49.0003C8.05131 49.0003 6.95231 48.543 6.03764 47.6283C5.12297 46.7137 4.66642 45.6154 4.66797 44.3337V18.667C4.66797 17.3837 5.12531 16.2847 6.03997 15.37C6.95464 14.4553 8.05286 13.9988 9.33464 14.0003H18.668V9.33366C18.668 8.05033 19.1253 6.95133 20.04 6.03666C20.9546 5.122 22.0529 4.66544 23.3346 4.667H32.668C33.9513 4.667 35.0503 5.12433 35.965 6.039C36.8796 6.95366 37.3362 8.05189 37.3346 9.33366V14.0003H46.668C47.9513 14.0003 49.0503 14.4577 49.965 15.3723C50.8796 16.287 51.3362 17.3852 51.3346 18.667V44.3337C51.3346 45.617 50.8773 46.716 49.9626 47.6307C49.048 48.5453 47.9497 49.0019 46.668 49.0003H9.33464ZM9.33464 44.3337H46.668V18.667H9.33464V44.3337ZM23.3346 14.0003H32.668V9.33366H23.3346V14.0003Z" fill="white"/>
</svg>
