<svg width="45" height="47" viewBox="0 0 45 47" fill="none" xmlns="http://www.w3.org/2000/svg">
<path d="M2 17.2277C2 14.8249 3.83563 12.877 6.1 12.877H38.9C41.1644 12.877 43 14.8249 43 17.2277V41.157C43 43.56 41.1644 45.5078 38.9 45.5078H6.1C3.83563 45.5078 2 43.56 2 41.157V17.2277Z" stroke="white" stroke-width="3" stroke-linecap="round" stroke-linejoin="round"/>
<path d="M30.7008 12.877V6.35078C30.7008 3.94791 28.8652 2 26.6008 2H18.4008C16.1364 2 14.3008 3.94791 14.3008 6.35078V12.877" stroke="white" stroke-width="3" stroke-linecap="round" stroke-linejoin="round"/>
<path d="M43 23.7539L23.304 27.9341C22.7733 28.0466 22.2267 28.0466 21.696 27.9341L2 23.7539" stroke="white" stroke-width="3" stroke-linecap="round" stroke-linejoin="round"/>
</svg>
