<svg width="56" height="56" viewBox="0 0 56 56" fill="none" xmlns="http://www.w3.org/2000/svg">
<path fill-rule="evenodd" clip-rule="evenodd" d="M37.3307 20.9993C37.3307 23.4747 36.3474 25.8487 34.5971 27.599C32.8467 29.3494 30.4727 30.3327 27.9974 30.3327C25.522 30.3327 23.1481 29.3494 21.3977 27.599C19.6474 25.8487 18.6641 23.4747 18.6641 20.9993C18.6641 18.524 19.6474 16.15 21.3977 14.3997C23.1481 12.6493 25.522 11.666 27.9974 11.666C30.4727 11.666 32.8467 12.6493 34.5971 14.3997C36.3474 16.15 37.3307 18.524 37.3307 20.9993ZM32.6641 20.9993C32.6641 22.237 32.1724 23.424 31.2972 24.2992C30.4221 25.1743 29.2351 25.666 27.9974 25.666C26.7597 25.666 25.5727 25.1743 24.6976 24.2992C23.8224 23.424 23.3307 22.237 23.3307 20.9993C23.3307 19.7617 23.8224 18.5747 24.6976 17.6995C25.5727 16.8243 26.7597 16.3327 27.9974 16.3327C29.2351 16.3327 30.4221 16.8243 31.2972 17.6995C32.1724 18.5747 32.6641 19.7617 32.6641 20.9993Z" fill="white"/>
<path fill-rule="evenodd" clip-rule="evenodd" d="M27.9987 2.33301C13.8237 2.33301 2.33203 13.8247 2.33203 27.9997C2.33203 42.1747 13.8237 53.6663 27.9987 53.6663C42.1737 53.6663 53.6654 42.1747 53.6654 27.9997C53.6654 13.8247 42.1737 2.33301 27.9987 2.33301ZM6.9987 27.9997C6.9987 32.8763 8.66236 37.3657 11.4507 40.931C13.4089 38.3594 15.9351 36.2754 18.832 34.8417C21.729 33.4081 24.9181 32.6635 28.1504 32.6663C31.3408 32.6633 34.4898 33.3886 37.3575 34.7868C40.2252 36.1851 42.7359 38.2195 44.6984 40.735C46.7201 38.0834 48.0813 34.9885 48.6694 31.7064C49.2576 28.4243 49.0557 25.0493 48.0805 21.8606C47.1053 18.672 45.3849 15.7615 43.0615 13.3698C40.7381 10.9781 37.8786 9.17401 34.7196 8.10686C31.5606 7.03971 28.1928 6.74014 24.895 7.23294C21.5972 7.72575 18.4642 8.99675 15.7552 10.9408C13.0461 12.8848 10.8389 15.446 9.31623 18.4125C7.79354 21.3789 6.99912 24.6653 6.9987 27.9997ZM27.9987 48.9997C23.1779 49.0069 18.5027 47.3485 14.764 44.305C16.2689 42.1507 18.2718 40.3918 20.6025 39.1779C22.9331 37.9641 25.5225 37.3311 28.1504 37.333C30.7454 37.3309 33.3035 37.948 35.6122 39.133C37.9209 40.318 39.9136 42.0367 41.4247 44.1463C37.6571 47.2886 32.9047 49.0066 27.9987 48.9997Z" fill="white"/>
</svg>
