<svg width="56" height="56" viewBox="0 0 56 56" fill="none" xmlns="http://www.w3.org/2000/svg">
<path d="M36.7509 5.25009C28.9984 5.25009 22.7509 11.4976 22.7509 19.2501C22.7509 19.6613 22.8157 20.2178 22.8612 20.7271L7.87592 35.7106C7.05737 36.5238 6.40776 37.4909 5.96447 38.5562C5.52118 39.6215 5.29297 40.764 5.29297 41.9178C5.29297 43.0717 5.52118 44.2141 5.96447 45.2794C6.40776 46.3447 7.05737 47.3118 7.87592 48.1251C8.68916 48.9436 9.65626 49.5932 10.7216 50.0365C11.7869 50.4798 12.9293 50.708 14.0832 50.708C15.237 50.708 16.3795 50.4798 17.4448 50.0365C18.5101 49.5932 19.4772 48.9436 20.2904 48.1251L35.2739 33.1398C35.7814 33.1853 36.3414 33.2501 36.7509 33.2501C44.5034 33.2501 50.7509 27.0026 50.7509 19.2501C50.7601 16.9943 50.1953 14.7733 49.1094 12.7961L48.0157 10.7731L46.3759 12.4146L38.8282 19.9046L36.0947 17.1711L43.5847 9.62509L45.2297 7.98359L43.2049 6.88984C41.2269 5.80611 39.0063 5.24193 36.7509 5.25009ZM36.7509 8.75009C37.6014 8.75009 38.2349 9.11759 38.9909 9.29784L32.3759 15.9128L31.1159 17.1728L32.3759 18.3751L37.6259 23.6251L38.8299 24.8851L40.0864 23.6251L46.7049 17.0101C46.8852 17.7661 47.2509 18.3996 47.2509 19.2501C47.2509 25.1476 42.6484 29.7501 36.7509 29.7501C36.0509 29.7501 35.4909 29.7501 35.0534 29.6398L34.1259 29.3668L33.4154 30.0791L17.8282 45.6663C15.6757 47.8188 12.4907 47.8188 10.3382 45.6663L10.2822 45.6103C8.18217 43.4578 8.19967 40.3078 10.3347 38.1728L25.9219 22.5873L26.6342 21.8768L26.3577 20.9493C26.2527 20.5118 26.2492 19.9518 26.2492 19.2518C26.2492 13.3543 30.8517 8.75184 36.7492 8.75184L36.7509 8.75009Z" fill="white"/>
</svg>
