<svg width="64" height="64" viewBox="0 0 64 64" fill="none" xmlns="http://www.w3.org/2000/svg">
<path d="M18.668 48V45.3333C18.668 41.7971 20.0727 38.4057 22.5732 35.9052C25.0737 33.4048 28.4651 32 32.0013 32M32.0013 32C35.5375 32 38.9289 33.4048 41.4294 35.9052C43.9299 38.4057 45.3346 41.7971 45.3346 45.3333V48M32.0013 32C34.123 32 36.1579 31.1571 37.6582 29.6569C39.1585 28.1566 40.0013 26.1217 40.0013 24C40.0013 21.8783 39.1585 19.8434 37.6582 18.3431C36.1579 16.8429 34.123 16 32.0013 16C29.8796 16 27.8447 16.8429 26.3444 18.3431C24.8442 19.8434 24.0013 21.8783 24.0013 24C24.0013 26.1217 24.8442 28.1566 26.3444 29.6569C27.8447 31.1571 29.8796 32 32.0013 32ZM2.66797 48V45.3333C2.66797 43.2116 3.51082 41.1768 5.01111 39.6765C6.51141 38.1762 8.54624 37.3333 10.668 37.3333M10.668 37.3333C12.0825 37.3333 13.439 36.7714 14.4392 35.7712C15.4394 34.771 16.0013 33.4145 16.0013 32C16.0013 30.5855 15.4394 29.229 14.4392 28.2288C13.439 27.2286 12.0825 26.6667 10.668 26.6667C9.25348 26.6667 7.89693 27.2286 6.89673 28.2288C5.89654 29.229 5.33464 30.5855 5.33464 32C5.33464 33.4145 5.89654 34.771 6.89673 35.7712C7.89693 36.7714 9.25348 37.3333 10.668 37.3333ZM61.3346 48V45.3333C61.3346 43.2116 60.4918 41.1768 58.9915 39.6765C57.4912 38.1762 55.4564 37.3333 53.3346 37.3333M53.3346 37.3333C54.7491 37.3333 56.1057 36.7714 57.1059 35.7712C58.1061 34.771 58.668 33.4145 58.668 32C58.668 30.5855 58.1061 29.229 57.1059 28.2288C56.1057 27.2286 54.7491 26.6667 53.3346 26.6667C51.9202 26.6667 50.5636 27.2286 49.5634 28.2288C48.5632 29.229 48.0013 30.5855 48.0013 32C48.0013 33.4145 48.5632 34.771 49.5634 35.7712C50.5636 36.7714 51.9202 37.3333 53.3346 37.3333Z" stroke="white" stroke-width="1.5" stroke-linecap="round" stroke-linejoin="round"/>
</svg>
