<svg width="56" height="53" viewBox="0 0 56 53" fill="none" xmlns="http://www.w3.org/2000/svg">
<path d="M29.863 36.4375V23.1875H22.9068V26.5H26.3849V36.4375H21.1677V39.75H35.0802V36.4375H29.863Z" fill="white"/>
<path d="M28.124 13.25C27.608 13.25 27.1037 13.3957 26.6747 13.6687C26.2457 13.9417 25.9114 14.3297 25.7139 14.7836C25.5165 15.2376 25.4649 15.7371 25.5655 16.2191C25.6662 16.701 25.9146 17.1436 26.2794 17.4911C26.6442 17.8385 27.109 18.0752 27.6151 18.171C28.1211 18.2669 28.6456 18.2177 29.1222 18.0296C29.5989 17.8416 30.0063 17.5232 30.2929 17.1146C30.5796 16.7061 30.7326 16.2257 30.7326 15.7344C30.7326 15.0755 30.4577 14.4436 29.9685 13.9777C29.4793 13.5117 28.8158 13.25 28.124 13.25Z" fill="white"/>
<path d="M28.124 49.6875C23.3086 49.6875 18.6014 48.3276 14.5976 45.7797C10.5938 43.2318 7.47316 39.6104 5.63041 35.3735C3.78765 31.1365 3.3055 26.4743 4.24493 21.9764C5.18436 17.4784 7.50317 13.3468 10.9081 10.104C14.3131 6.86114 18.6513 4.65275 23.3741 3.75805C28.097 2.86336 32.9923 3.32255 37.4411 5.07755C41.8899 6.83256 45.6924 9.80456 48.3677 13.6177C51.0429 17.4309 52.4709 21.914 52.4709 26.5C52.4709 32.6497 49.9058 38.5476 45.3398 42.896C40.7739 47.2445 34.5812 49.6875 28.124 49.6875ZM28.124 6.62501C23.9965 6.62501 19.9618 7.79066 16.5299 9.97455C13.0981 12.1584 10.4233 15.2625 8.84377 18.8942C7.26427 22.5259 6.851 26.5221 7.65622 30.3774C8.46145 34.2328 10.449 37.7742 13.3676 40.5538C16.2861 43.3333 20.0046 45.2262 24.0527 45.9931C28.1008 46.76 32.2968 46.3664 36.1101 44.8621C39.9234 43.3578 43.1826 40.8104 45.4757 37.542C47.7688 34.2735 48.9927 30.4309 48.9927 26.5C48.9927 21.2288 46.7941 16.1735 42.8804 12.4463C38.9668 8.71898 33.6587 6.62501 28.124 6.62501Z" fill="white"/>
</svg>
