<svg width="37" height="37" viewBox="0 0 37 37" fill="none" xmlns="http://www.w3.org/2000/svg">
<g clip-path="url(#clip0_992_3264)">
<path d="M36.0606 6.76603C34.7473 7.34798 33.3364 7.74119 31.8532 7.91892C33.3836 7.0032 34.5286 5.56197 35.0744 3.86414C33.6366 4.71817 32.063 5.31932 30.422 5.64145C29.3184 4.46318 27.8567 3.6822 26.2639 3.41977C24.671 3.15734 23.036 3.42813 21.6128 4.19011C20.1896 4.95209 19.0578 6.16263 18.3931 7.63377C17.7284 9.10492 17.568 10.7544 17.9367 12.326C15.0233 12.1797 12.1733 11.4225 9.57146 10.1035C6.96967 8.7844 4.67429 6.93301 2.83432 4.66943C2.20518 5.75469 1.84343 7.01297 1.84343 8.35303C1.84273 9.55939 2.1398 10.7473 2.7083 11.8113C3.2768 12.8753 4.09914 13.7825 5.10236 14.4525C3.93889 14.4155 2.80109 14.1011 1.78366 13.5355V13.6299C1.78354 15.3219 2.36881 16.9618 3.44015 18.2714C4.51149 19.5809 6.00292 20.4795 7.66137 20.8147C6.58206 21.1068 5.45048 21.1498 4.35211 20.9405C4.82003 22.3963 5.73148 23.6694 6.95889 24.5815C8.18629 25.4936 9.66818 25.999 11.1971 26.027C8.60167 28.0645 5.3963 29.1697 2.09666 29.1649C1.51216 29.165 0.928155 29.1309 0.347656 29.0626C3.69698 31.2161 7.59584 32.359 11.5777 32.3546C25.057 32.3546 32.4258 21.1906 32.4258 11.5081C32.4258 11.1936 32.4179 10.8759 32.4037 10.5613C33.8371 9.52475 35.0743 8.24119 36.0574 6.77075L36.0606 6.76603Z" fill="black"/>
</g>
<defs>
<clipPath id="clip0_992_3264">
<rect width="35.7129" height="35.7129" fill="white" transform="translate(0.347656 0.347656)"/>
</clipPath>
</defs>
</svg>
